<svg xmlns="http://www.w3.org/2000/svg" xmlns:xlink="http://www.w3.org/1999/xlink" width="154" height="154" viewBox="0 0 154 154">
  <defs>
    <clipPath id="clip-path">
      <circle id="Ellipse_2" data-name="Ellipse 2" cx="77" cy="77" r="77" transform="translate(46 3106)" fill="none" stroke="#707070" stroke-width="1"/>
    </clipPath>
    <clipPath id="clip-path-2">
      <rect id="Rectangle_566" data-name="Rectangle 566" width="129.298" height="154" fill="none"/>
    </clipPath>
  </defs>
  <g id="Group_127" data-name="Group 127" transform="translate(-55 -3144)">
    <g id="Ellipse_3" data-name="Ellipse 3" transform="translate(55 3144)" fill="none" stroke="#707070" stroke-width="1">
      <circle cx="77" cy="77" r="77" stroke="none"/>
      <circle cx="77" cy="77" r="76.5" fill="none"/>
    </g>
    <g id="Mask_Group_1" data-name="Mask Group 1" transform="translate(9 38)" clip-path="url(#clip-path)">
      <g id="Doctor" transform="translate(123 3183)">
        <g id="Group_130" data-name="Group 130" transform="translate(-64.649 -77)" clip-path="url(#clip-path-2)">
          <path id="Path_725" data-name="Path 725" d="M664.228,629.564a1.464,1.464,0,1,0-1.464,1.464,1.464,1.464,0,0,0,1.464-1.464" transform="translate(-559.4 -531.315)" fill="#0a5b55"/>
          <path id="Path_726" data-name="Path 726" d="M208.6,730.064a1.464,1.464,0,1,0,1.464-1.464,1.464,1.464,0,0,0-1.464,1.464" transform="translate(-176.457 -616.329)" fill="#0a5b55"/>
          <path id="Path_727" data-name="Path 727" d="M103.1,730.064a1.464,1.464,0,1,0,1.464-1.464,1.464,1.464,0,0,0-1.464,1.464" transform="translate(-87.213 -616.329)" fill="#0a5b55"/>
          <path id="Path_728" data-name="Path 728" d="M93.78,74.534a40.849,40.849,0,0,1,10.987,20.448h-.031a3.559,3.559,0,1,1-3.174.231A39.309,39.309,0,0,0,85.181,71.02c6.395-7.658,10.756-18.8,11.711-31.45a36.566,36.566,0,0,0,0-10.447C94.5,12.635,80.975,0,64.657,0S34.794,12.635,32.405,29.123a36.4,36.4,0,0,0-.37,5.208c0,.724.031,1.433.062,2.142.062,1.032.154,2.065.308,3.066.031.308.046.616.077.925,1.079,12.25,5.378,23.037,11.6,30.51q-2.142.709-4.222,1.572c-7.643,6.164-12.1,15.656-12.836,27.3a9,9,0,0,1,7.5,8.876V110.3a3.544,3.544,0,1,1-1.818,0v-1.587a7.174,7.174,0,0,0-14.346,0v1.572a3.544,3.544,0,1,1-1.818,0v-1.572a9.014,9.014,0,0,1,7.3-8.845C24.531,90,27.69,81.144,34.239,74.5c-19.431,9.769-32,28.984-34.239,51.62C12.867,146,37,154,64.657,154s51.79-8,64.657-27.875A64.979,64.979,0,0,0,93.78,74.534M36.427,40.726a13.76,13.76,0,0,1,4.53,2.126s-3.236-19.138,3.575-21.819c0,0,22.544,10.956,37.706,0,0,0,9,14.238,6.472,19.832l4.577-5.27a31.667,31.667,0,0,1-.324,4.114C91.391,60.542,79.326,76.737,64.657,76.737c-14.423,0-26.35-15.671-28.229-36.011M64.04,98.248l-18.2-25.317c5.3,5.532,11.8,8.783,18.815,8.783,6.549,0,12.635-2.835,17.736-7.7Zm27.012,29.308H84.6V134H79.11v-6.441H72.654v-5.5h6.441v-6.441h5.5v6.441h6.441Z" fill="#0a5b55"/>
        </g>
      </g>
    </g>
  </g>
</svg>
