<svg xmlns="http://www.w3.org/2000/svg" xmlns:xlink="http://www.w3.org/1999/xlink" width="40.433" height="43.168" viewBox="0 0 40.433 43.168">
  <defs>
    <clipPath id="clip-path">
      <rect id="Rectangle_20" data-name="Rectangle 20" width="40.433" height="43.168" fill="none"/>
    </clipPath>
  </defs>
  <g id="Logo" transform="translate(20.217 21.584)">
    <g id="Group_11" data-name="Group 11" transform="translate(-20.217 -21.584)" clip-path="url(#clip-path)">
      <path id="Path_86" data-name="Path 86" d="M39.225,28.2v4.085a10.228,10.228,0,0,1-20.425,0V28.2" transform="translate(-13.194 -19.791)" fill="none" stroke="#0a5b55" stroke-miterlimit="10" stroke-width="4.473"/>
      <path id="Path_87" data-name="Path 87" d="M53.1,76.2v8.677a5.964,5.964,0,0,0,5.964,5.964h9.691" transform="translate(-37.267 -53.479)" fill="none" stroke="#0a5b55" stroke-miterlimit="10" stroke-width="4.473"/>
      <path id="Path_88" data-name="Path 88" d="M111.4,116.948a3.548,3.548,0,1,1-3.548-3.548A3.548,3.548,0,0,1,111.4,116.948Z" transform="translate(-73.2 -79.586)" fill="none" stroke="#0a5b55" stroke-miterlimit="10" stroke-width="4.473"/>
      <path id="Path_89" data-name="Path 89" d="M82.4,11.048A3.548,3.548,0,1,1,78.848,7.5,3.548,3.548,0,0,1,82.4,11.048Z" transform="translate(-52.847 -5.264)" fill="none" stroke="#0a5b55" stroke-miterlimit="10" stroke-width="4.473"/>
      <path id="Path_90" data-name="Path 90" d="M14.7,11.048a3.548,3.548,0,1,1-1.05-2.52A3.548,3.548,0,0,1,14.7,11.048Z" transform="translate(-5.334 -5.263)" fill="none" stroke="#0a5b55" stroke-miterlimit="10" stroke-width="4.473"/>
    </g>
  </g>
</svg>
