<svg height='100px' width='100px'  fill="#FFFFFF" xmlns="http://www.w3.org/2000/svg" xmlns:xlink="http://www.w3.org/1999/xlink" version="1.1" x="0px" y="0px" viewBox="0 0 100 100" enable-background="new 0 0 100 100" xml:space="preserve"><path d="M29.616,26.331c-2.059,1.384-3.417,3.734-3.417,6.396c0,2.562,1.261,4.829,3.189,6.232v4.38  c0,0.698,0.566,1.266,1.266,1.266h5.597c1.573,2.156,3.592,3.963,5.938,5.276v2.189h-9c-3.759,0-6.816,3.059-6.816,6.818V76.91  c0,8.03,9.438,13.019,24.632,13.019c14.506,0,24.635-5.354,24.635-13.019V58.889c0-3.76-3.059-6.818-6.818-6.818h-9.394v-1.743  c4.126-2.031,7.36-5.548,9.028-9.892c0.011,0,0.023,0.001,0.034,0.001c4.25,0,7.708-3.458,7.708-7.71  c0-2.665-1.36-5.017-3.425-6.402c-2.634-9.128-10.922-15.947-20.912-16.243c-0.216-0.007-0.444-0.01-0.674-0.01  C40.889,10.071,32.293,16.88,29.616,26.331z M28.732,32.727c0-0.14,0.03-0.271,0.041-0.407c0.103-1.291,0.659-2.451,1.537-3.302  c0.423-0.411,0.917-0.745,1.461-0.992c0.6-0.272,1.26-0.429,1.957-0.453c-0.487,1.398-0.8,2.879-0.942,4.416  c-0.037,0.394-0.082,0.786-0.094,1.188c-0.001,0.024,0.002,0.05,0.001,0.077c-0.01,0.425,0.01,0.846,0.027,1.266  c0.048,1.133,0.202,2.236,0.447,3.31C30.661,37.466,28.732,35.331,28.732,32.727z M31.921,42.072v-1.905  c0.635,0.17,1.299,0.27,1.988,0.27c0.012,0,0.023-0.001,0.035-0.001c0.219,0.559,0.463,1.105,0.733,1.637H31.921z M56.896,52.07  v1.266v1.267v1.278h-0.011c0,0.06,0.016,0.113,0.011,0.179c-0.097,3.299-2.806,5.909-6.081,5.909c-0.061,0-0.123-0.001-0.182-0.002  c-3.302-0.101-5.896-2.806-5.896-6.086h-0.015v-1.278v-1.267V52.07v-1.02c1.271,0.478,2.602,0.831,3.99,1.02  c0.638,0.086,1.286,0.143,1.944,0.162c0.186,0.006,0.37,0.009,0.555,0.009c0.817,0,1.615-0.069,2.403-0.171  c1.129-0.145,2.227-0.382,3.281-0.718V52.07z M67.168,34.273c-0.015,0.425-0.052,0.846-0.099,1.264  c-0.08,0.692-0.199,1.37-0.362,2.032c-0.101,0.409-0.211,0.815-0.344,1.211c-0.136,0.41-0.296,0.805-0.463,1.199  c-1.326,3.116-3.609,5.707-6.472,7.432c-0.411,0.247-0.833,0.478-1.267,0.687c-0.413,0.2-0.835,0.385-1.267,0.55  c-1.771,0.678-3.684,1.061-5.685,1.061c-0.159,0-0.32-0.003-0.48-0.007c-2.141-0.063-4.166-0.552-6.008-1.371  c-0.434-0.191-0.855-0.406-1.267-0.635c-0.435-0.243-0.857-0.505-1.266-0.784c-0.979-0.671-1.884-1.441-2.69-2.307h2.903H44h3.069  c0.274,0,0.515-0.104,0.723-0.253c0.321-0.23,0.543-0.588,0.543-1.012c0-0.091-0.033-0.169-0.051-0.253  c-0.121-0.574-0.605-1.013-1.215-1.013H37.58c-0.41-0.667-0.766-1.369-1.075-2.096c-0.168-0.392-0.318-0.792-0.454-1.199  c-0.132-0.398-0.25-0.8-0.354-1.209c-0.237-0.962-0.392-1.954-0.446-2.972c-0.012-0.199-0.01-0.402-0.013-0.602  c0.106,0,1.418-0.025,3.154-0.572c0.208-0.066,0.421-0.14,0.64-0.221c0.356-0.134,0.722-0.291,1.098-0.474  c0.071-0.033,0.138-0.057,0.208-0.093c0.229-0.117,0.462-0.263,0.695-0.401c0.154-0.089,0.303-0.164,0.457-0.264  c0.026-0.017,0.053-0.039,0.079-0.057c1.972-1.312,4.189-3.636,5.313-7.728c1.653,3.136,4.833,6.694,10.898,8.542  c0.945,0.29,1.951,0.542,3.043,0.738c0.424,0.075,0.876,0.135,1.323,0.194c0.421,0.058,0.85,0.108,1.29,0.15  c1.172,0.113,2.4,0.185,3.729,0.185c0.002,0,0.003,0,0.006,0c-0.002,0.068,0.006,0.134,0.003,0.203  C67.173,34.223,67.169,34.248,67.168,34.273z M72.094,29.021c0.879,0.854,1.437,2.021,1.534,3.316c0.01,0.131,0.04,0.257,0.04,0.39  c0,0.087-0.021,0.168-0.026,0.253c-0.013,0.26-0.027,0.518-0.077,0.767c-0.424,2.122-2.147,3.757-4.306,4.081  c0.161-0.722,0.267-1.464,0.342-2.216c0.041-0.418,0.085-0.837,0.099-1.264c0.002-0.026,0.005-0.051,0.006-0.077  c0.013-0.399-0.009-0.793-0.021-1.19c-0.063-1.9-0.408-3.752-1.027-5.509c0.682,0.022,1.331,0.168,1.923,0.429  C71.144,28.25,71.655,28.597,72.094,29.021z M51.188,12.604c0.199,0,0.396,0.002,0.599,0.01c8.156,0.241,15.028,5.383,17.897,12.51  c-0.391-0.061-0.787-0.103-1.193-0.103c-0.314,0-0.622,0.025-0.926,0.062c-0.771-1.457-1.73-2.826-2.892-4.058  c-3.392-3.599-7.981-5.661-12.925-5.81c-0.185-0.005-0.369-0.007-0.553-0.007c0,0,0,0-0.002,0c-7.14,0-13.286,3.976-16.377,9.873  c-0.298-0.034-0.6-0.06-0.907-0.06c-0.416,0-0.82,0.042-1.217,0.107C35.615,17.748,42.756,12.604,51.188,12.604z"></path></svg>