<svg height='100px' width='100px'  fill="#1A1A1A" xmlns="http://www.w3.org/2000/svg" xmlns:xlink="http://www.w3.org/1999/xlink" version="1.1" x="0px" y="0px" viewBox="0 0 100 119.1" enable-background="new 0 0 100 119.1" xml:space="preserve"><path fill="#1A1A1A" d="M72.527,57.638c4.218,4.265,7.231,9.719,8.493,15.818c3.819,0.318,6.821,3.516,6.821,7.416  c0,4.114-3.336,7.45-7.448,7.45c-4.115,0-7.45-3.336-7.45-7.45c0-3.473,2.381-6.381,5.597-7.204  c-1.654-7.727-6.304-14.458-12.657-18.747c4.947-5.918,8.32-14.542,9.055-24.328c0.19-1.317,0.29-2.666,0.29-4.039  c0-1.374-0.1-2.722-0.29-4.04C73.088,9.766,62.626,0,50,0C37.368,0,26.906,9.771,25.062,22.524c-0.19,1.314-0.289,2.659-0.289,4.03  c0,0.556,0.021,1.107,0.053,1.655c0.047,0.801,0.124,1.594,0.236,2.374c0.018,0.238,0.038,0.476,0.059,0.712  c0.838,9.477,4.156,17.816,8.97,23.591c-1.107,0.369-2.198,0.773-3.268,1.216c-6.216,5.013-9.712,12.852-10.001,22.493  c6.311,0.552,11.318,8.354,11.318,17.929l-2.334,1.983c0.197,0.305,0.314,0.666,0.314,1.058c0,1.074-0.871,1.943-1.945,1.943  c-1.072,0-1.943-0.869-1.943-1.943s0.871-1.944,1.943-1.944c0.375,0,0.723,0.111,1.021,0.297l2.005-1.394  c0-9.156-4.966-16.579-11.092-16.579c-6.124,0-11.089,7.423-11.089,16.579l1.836,1.273c0.244-0.111,0.516-0.177,0.803-0.177  c1.074,0,1.945,0.869,1.945,1.942c0,1.075-0.871,1.944-1.945,1.944s-1.945-0.869-1.945-1.944c0-0.48,0.182-0.914,0.471-1.253  l-2.102-1.788c0-9.037,4.462-16.494,10.27-17.77c0.292-8.227,2.717-15.653,8.125-21.121C11.451,65.18,1.73,80.038,0,97.546  C9.945,112.917,28.611,119.1,50,119.1c21.386,0,40.054-6.183,49.999-21.554C98.269,80.04,87.551,65.186,72.527,57.638z   M34.439,16.266c0,0,17.433,8.478,29.156,0c0,0,6.958,11.008,5.005,15.334l3.54-4.067c-0.015,1.081-0.097,2.144-0.248,3.184  C70.684,46.816,61.344,59.344,50,59.344c-11.16,0-20.381-12.125-21.828-27.848c0.982,0.247,2.187,0.724,3.499,1.64  C31.67,33.136,29.178,18.342,34.439,16.266z M49.523,75.981L35.452,56.404c4.104,4.275,9.123,6.798,14.548,6.798  c5.062,0,9.77-2.197,13.711-5.963L49.523,75.981z M70.413,98.647h-4.986v4.985h-4.249v-4.985h-4.984v-4.248h4.984v-4.986h4.249  v4.986h4.986V98.647z"></path><path fill="#1A1A1A" d="M80.393,85.767c2.703,0,4.893-2.19,4.893-4.896c0-2.341-1.647-4.29-3.844-4.772  c-0.341-0.073-0.689-0.118-1.049-0.118c-0.501,0-0.973,0.097-1.427,0.235c-2.002,0.613-3.469,2.453-3.469,4.655  C75.498,83.576,77.69,85.767,80.393,85.767z"></path></svg>