<svg id="Layer_1" data-name="Layer 1" xmlns="http://www.w3.org/2000/svg" viewBox="0 0 991 991"><defs><style>.cls-1{fill:#0a5b55;}.cls-2{fill:none;stroke:#4d4d4d;stroke-miterlimit:10;stroke-width:3px;}</style></defs><path class="cls-1" d="M726,527.44H608.72V505.68A229,229,0,0,0,721.41,382.21h.43A96.18,96.18,0,0,0,775.3,206.07c-26.91-93.24-101.07-167.18-195.46-193a500.13,500.13,0,0,0-149.65.3A278.49,278.49,0,0,0,236.6,206.14a96,96,0,0,0-2.85,157.63v54.68a15.81,15.81,0,0,0,15.81,15.8h69.86a232.26,232.26,0,0,0,74.12,65.86v27.32H281.2a85.18,85.18,0,0,0-85.08,85.1v225a115.16,115.16,0,0,0,18.09,62.76,494.21,494.21,0,0,0,567.68,11.19c18.91-21.71,29.2-46.66,29.2-74V612.55A85.21,85.21,0,0,0,726,527.44Zm40.85-287.72A64.15,64.15,0,0,1,786,281.11c.13,1.64.5,3.21.5,4.87,0,1.09-.26,2.1-.32,3.16a65.32,65.32,0,0,1-1,9.57,64.46,64.46,0,0,1-53.75,50.94A234.28,234.28,0,0,0,735.71,322c.51-5.21,1.06-10.44,1.23-15.77,0-.33.07-.64.08-1,.16-5-.11-9.9-.26-14.86a229.71,229.71,0,0,0-12.82-68.76,64.32,64.32,0,0,1,24,5.35A65.18,65.18,0,0,1,766.83,239.72ZM225.56,286c0-1.75.38-3.38.52-5.08a63.93,63.93,0,0,1,61.85-59.25,232.11,232.11,0,0,0-11.76,55.12c-.46,4.92-1,9.81-1.18,14.83,0,.3,0,.62,0,1-.13,5.31.12,10.56.33,15.8a229.78,229.78,0,0,0,5.58,41.32A64.45,64.45,0,0,1,225.56,286Zm39.81,116.66V378.85a95.85,95.85,0,0,0,24.82,3.37h.43q4.11,10.47,9.15,20.43Zm24.82-212.85a93.89,93.89,0,0,0-15.2,1.34C311.48,99,400.62,34.8,505.87,34.8c2.48,0,4.94,0,7.48.12,101.8,3,187.58,67.2,223.39,156.16a86.35,86.35,0,0,0-26.45-.51A230.47,230.47,0,0,0,512.86,67.39q-3.47-.09-6.9-.09h0A229.73,229.73,0,0,0,301.51,190.54,100.7,100.7,0,0,0,290.19,189.79ZM577.12,577.23A76,76,0,0,1,501.21,651l-2.27,0a75.9,75.9,0,0,1-73.59-76h-.19V514.7A229.49,229.49,0,0,0,475,527.43a233.33,233.33,0,0,0,24.27,2c2.32.08,4.62.11,6.93.11a249.43,249.43,0,0,0,70.95-11.09v9h0V575H577C577,575.75,577.18,576.41,577.12,577.23Zm0-92.52a197.79,197.79,0,0,1-71,13.25c-2,0-4,0-6-.09a198.54,198.54,0,0,1-75-17.11c-5.42-2.39-10.68-5.07-15.82-7.93q-8.15-4.54-15.8-9.78A201.29,201.29,0,0,1,360,434.25h94.5a16.54,16.54,0,0,0,15.81-15.79,14.88,14.88,0,0,0-.64-3.16,15.57,15.57,0,0,0-15.17-12.64H336a197.29,197.29,0,0,1-13.42-26.17c-2.1-4.89-4-9.88-5.67-15s-3.12-10-4.42-15.1a199.22,199.22,0,0,1-5.56-37.09c-.15-2.49-.13-5-.17-7.52,1.33,0,17.7-.31,39.37-7.14q3.9-1.23,8-2.76,6.67-2.51,13.71-5.91c.88-.41,1.72-.71,2.6-1.16,2.85-1.46,5.76-3.29,8.67-5,1.92-1.11,3.78-2,5.7-3.29.33-.22.67-.49,1-.72,24.62-16.37,52.29-45.38,66.32-96.46,20.63,39.15,60.33,83.56,136,106.62a324.78,324.78,0,0,0,38,9.22c5.29.93,10.93,1.68,16.51,2.42,5.26.72,10.61,1.35,16.1,1.87,14.63,1.41,30,2.31,46.55,2.31h.07c0,.85.08,1.67,0,2.53,0,.32-.06.63-.07.94-.19,5.31-.65,10.56-1.24,15.78a203,203,0,0,1-4.52,25.36c-1.26,5.11-2.63,10.18-4.29,15.12-1.7,5.12-3.7,10-5.78,15a199.77,199.77,0,0,1-80.79,92.77c-5.13,3.09-10.39,6-15.81,8.58C587.75,480.35,582.49,482.65,577.09,484.71Z" transform="translate(-10.5 -6.1)"/><path class="cls-2" d="M1000,501.6c0,170.65-86.53,321.09-218.11,409.84a494.21,494.21,0,0,1-567.68-11.19C91.6,810.36,12,665.28,12,501.6c0-247,181.35-451.74,418.19-488.22a500.13,500.13,0,0,1,149.65-.3C817.65,48.72,1000,253.87,1000,501.6Z" transform="translate(-10.5 -6.1)"/></svg>